<svg xmlns="http://www.w3.org/2000/svg" viewBox="0 0 64 64" role="img" aria-labelledby="title desc">
  <title id="title">National Interview Week</title>
  <desc id="desc">Professional interview and mentoring icon</desc>

  <rect width="64" height="64" rx="14" fill="#f3eaff"/>

  <!-- Speech bubbles -->
  <path d="M14 17h25a6 6 0 0 1 6 6v12a6 6 0 0 1-6 6H27l-8 7v-7h-5a6 6 0 0 1-6-6V23a6 6 0 0 1 6-6Z"
        fill="#7b45d6"/>

  <path d="M32 25h18a6 6 0 0 1 6 6v9a6 6 0 0 1-6 6h-4v6l-7-6h-7a6 6 0 0 1-6-6v-3"
        fill="#5d2fa8"/>

  <!-- Interview dots -->
  <circle cx="20" cy="29" r="2.3" fill="#fff"/>
  <circle cx="27" cy="29" r="2.3" fill="#fff"/>
  <circle cx="34" cy="29" r="2.3" fill="#fff"/>

  <!-- Person -->
  <circle cx="43" cy="33" r="3.2" fill="#fff"/>
  <path d="M37.5 42c.7-3.1 2.7-4.6 5.5-4.6s4.8 1.5 5.5 4.6"
        fill="none"
        stroke="#fff"
        stroke-width="2"
        stroke-linecap="round"/>
</svg>
